<svg width="125" height="125" viewBox="0 0 125 125" fill="none" xmlns="http://www.w3.org/2000/svg">
<path d="M117.524 36.9543C117.524 34.8863 117.084 33.0216 116.168 31.462C115.287 29.9025 113.965 28.6142 112.202 27.5971C97.5557 19.1552 82.8757 10.7134 68.2296 2.27153C64.2629 -3.93391e-06 60.4657 0.0678306 56.533 2.37321C50.7017 5.7975 21.4773 22.5455 12.7981 27.5971C9.20434 29.6651 7.47534 32.8521 7.47534 36.9883V87.9783C7.47534 90.0125 7.91605 91.8093 8.76363 93.369C9.64519 94.9624 11.0013 96.3185 12.7981 97.3695C21.5112 102.421 50.7017 119.135 56.533 122.593C60.4657 124.898 64.2967 125 68.2296 122.695C82.8757 114.219 97.5557 105.811 112.202 97.3695C114.032 96.3185 115.355 94.9963 116.236 93.369C117.084 91.8093 117.524 90.0125 117.524 87.9783V36.9543Z" fill="#9A4993"/>
<path d="M62.6356 62.2799L8.6958 93.335C9.57737 94.9285 10.9335 96.2846 12.7303 97.3357C21.4434 102.387 50.6339 119.101 56.4652 122.559C60.3979 124.865 64.2291 124.967 68.1617 122.661C82.8079 114.185 97.4879 105.777 112.134 97.3357C113.965 96.2846 115.287 94.9624 116.168 93.335L62.6356 62.2799Z" fill="#6A1577"/>
<path d="M46.6672 71.4675C49.8203 76.9598 55.7193 80.6553 62.4661 80.6553C69.2805 80.6553 75.2135 76.926 78.3327 71.3658L62.6356 62.2799L46.6672 71.4675Z" fill="#6A1577"/>
<path d="M117.525 36.9543C117.525 34.8863 117.084 33.0216 116.169 31.462L62.6356 62.2799L116.236 93.3351C117.084 91.7755 117.525 89.9787 117.525 87.9445V36.9543Z" fill="#813084"/>
<path d="M78.3327 71.3658C75.2137 76.892 69.2807 80.6553 62.4661 80.6553C55.6855 80.6553 49.7865 76.9598 46.6673 71.4675C45.1417 68.7893 44.2601 65.738 44.2601 62.4494C44.2601 52.3802 52.3969 44.2434 62.4661 44.2434C69.1789 44.2434 75.0442 47.9049 78.1971 53.3294L94.0976 44.1756C87.7578 33.2589 75.9595 25.902 62.4323 25.902C42.226 25.902 25.8848 42.2771 25.8848 62.4494C25.8848 69.0605 27.6477 75.2987 30.7329 80.6553C37.0388 91.606 48.9049 98.9968 62.4661 98.9968C76.0613 98.9968 87.9273 91.5721 94.2332 80.5536L78.3327 71.3658ZM98.4371 53.8041H94.8095V71.332H98.4371V53.8041ZM106.472 53.8041H102.845V71.332H106.472V53.8041Z" fill="white"/>
<path d="M109.422 56.7537H91.8939V60.3814H109.422V56.7537ZM109.422 64.7548H91.8939V68.3824H109.422V64.7548Z" fill="white"/>
</svg>
