<svg width="125" height="125" viewBox="0 0 125 125" fill="none" xmlns="http://www.w3.org/2000/svg">
<path d="M115 10H10.8333V114.167H115V10Z" fill="#F7DF1E"/>
<path d="M40.875 93.125L47.85 88.9C49.2 91.3 50.425 93.3 53.35 93.3C56.175 93.3 57.95 92.2 57.95 87.9V58.775H66.525V88.05C66.525 96.925 61.325 100.975 53.725 100.975C46.875 100.975 42.9 97.425 40.875 93.125Z" fill="#211E1E"/>
<path d="M71.2 92.2L78.175 88.15C80.025 91.15 82.4 93.35 86.625 93.35C90.175 93.35 92.45 91.575 92.45 89.125C92.45 86.175 90.125 85.15 86.2 83.425L84.05 82.5C77.875 79.875 73.75 76.55 73.75 69.575C73.75 63.15 78.65 58.25 86.3 58.25C91.75 58.25 95.675 60.15 98.5 65.1L91.825 69.375C90.35 66.75 88.775 65.7 86.325 65.7C83.825 65.7 82.225 67.3 82.225 69.375C82.225 71.95 83.825 73 87.5 74.575L89.65 75.5C96.95 78.625 101.05 81.8 101.05 88.975C101.05 96.7 94.975 100.925 86.85 100.925C78.85 100.975 73.7 97.175 71.2 92.2Z" fill="#211E1E"/>
</svg>
