<svg width="150" height="125" viewBox="0 0 150 125" fill="none" xmlns="http://www.w3.org/2000/svg">
<g clip-path="url(#clip0_31_131)">
<path d="M101.693 39.8019L85.1295 45.3773L70.7195 51.9334L66.6881 53.0305C65.6614 54.0372 64.5848 55.0569 63.4205 56.0893C62.1435 57.2249 60.9541 58.2576 60.04 59.0059C59.026 59.832 57.5237 61.3806 56.76 62.3613C55.6207 63.8325 54.7193 65.3941 54.3312 66.5945C53.6425 68.7627 53.9807 70.9566 55.3078 72.983C57.0104 75.564 60.4033 78.1967 64.3594 79.9906C66.3752 80.9071 69.7679 82.0814 72.3219 82.7395C76.5659 83.8495 84.7789 85.0498 89.2984 85.2306C90.2122 85.2693 91.4392 85.2693 91.4892 85.2306C91.5894 85.1658 92.2906 83.7851 93.1045 82.0687C95.8838 76.2222 97.8869 70.7372 98.9761 66.0525C99.627 63.2134 100.14 59.4319 100.478 54.9538C100.566 53.7019 100.603 49.5075 100.528 48.0877C100.416 45.7648 100.215 43.8806 99.9025 42.0351C99.8524 41.764 99.8397 41.5187 99.8648 41.5059C99.9148 41.4672 100.065 41.4156 102.106 40.8088L101.693 39.8024V39.8021H101.693V39.8019ZM97.9121 42.0864C98.0623 42.0864 98.4628 46.0484 98.5629 48.5523C98.5881 49.0814 98.5754 49.4298 98.5504 49.4298C98.4504 49.4298 96.4346 48.2039 94.9951 47.2747C93.743 46.4616 91.3644 44.8354 90.9889 44.5257C90.8634 44.4354 90.8759 44.4226 91.9026 44.0611C93.6427 43.4544 97.7744 42.0864 97.9121 42.0864ZM89.4738 44.9516C89.5866 44.9516 89.8743 45.1192 90.563 45.5581C93.1419 47.2229 96.6476 49.2363 98.1499 49.9075C98.613 50.1139 98.663 50.0364 97.599 50.7851C95.3204 52.3853 92.4783 53.9597 88.9978 55.5472C88.3845 55.8311 87.8712 56.0504 87.8588 56.0504C87.8338 56.0504 87.9087 55.728 88.0088 55.3407C88.8476 52.127 89.3234 48.8748 89.3486 46.2678C89.3611 44.9772 89.3611 44.9772 89.4738 44.9387C89.4487 44.9516 89.4611 44.9516 89.4738 44.9516ZM87.7337 45.6355C87.8085 45.7128 87.7586 48.6038 87.6584 49.391C87.433 51.2753 87.0825 53.0304 86.5068 55.0052C86.369 55.4824 86.2436 55.8827 86.2189 55.9084C86.1685 55.9729 84.4533 54.2436 83.89 53.5725C82.9134 52.4109 82.1499 51.2494 81.5865 50.1137C81.2985 49.533 80.8479 48.3974 80.8853 48.3586C81.0856 48.2166 87.6835 45.584 87.7337 45.6355ZM79.5457 48.9522C79.5581 48.9522 79.5706 48.9522 79.5833 48.9651C79.6082 48.9909 79.6961 49.1975 79.7712 49.4297C80.1717 50.5525 81.0729 52.2044 81.8494 53.2628C82.7007 54.4244 83.815 55.6632 84.7413 56.4763C85.0419 56.7344 85.3171 56.9795 85.3546 57.0183C85.4299 57.0958 85.4549 57.0828 83.4141 57.883C81.0482 58.8122 78.4689 59.7414 75.5142 60.7222C74.8084 60.9567 74.1033 61.1934 73.3988 61.4321C73.2859 61.4709 73.3235 61.4062 73.649 60.8772C75.1138 58.5154 77.3422 53.8823 78.5942 50.6041C78.8071 50.0363 79.0199 49.4685 79.0575 49.3394C79.1076 49.1586 79.1701 49.0942 79.3328 49.0038C79.4204 48.9782 79.5082 48.9522 79.5457 48.9522ZM77.042 50.0234C77.0794 50.0494 76.4409 51.4301 75.8149 52.6949C74.6005 55.1341 73.2734 57.5347 71.4957 60.4513C71.1952 60.9546 70.9074 61.4193 70.8697 61.4709C70.8072 61.5613 70.782 61.5354 70.5817 61.1354C70.1561 60.2706 69.8054 59.1607 69.6177 58.1411C69.4298 57.1344 69.4674 55.3793 69.6804 54.2953C69.8429 53.4952 69.8306 53.5081 70.2061 53.3144C71.8086 52.4756 76.9919 49.9718 77.042 50.0234ZM98.6382 50.9269V51.4689C98.6382 54.3469 98.3378 58.2961 97.8994 61.1742C97.8243 61.6774 97.7615 62.0903 97.7492 62.1034C97.7492 62.1034 97.3862 62.0002 96.9605 61.871C95.0826 61.2643 93.0419 60.3738 91.2014 59.3287C89.9868 58.6446 88.2217 57.5217 88.2719 57.47C88.2842 57.4572 88.8101 57.1733 89.4235 56.8377C91.8776 55.5214 94.2311 54.1017 96.2719 52.695C97.0356 52.1658 98.1872 51.3142 98.4379 51.0818L98.6382 50.9269ZM67.5895 54.7468C67.6395 54.7468 67.627 54.8501 67.5519 55.3147C67.5018 55.6503 67.4392 56.2698 67.4144 56.6955C67.314 58.5798 67.6146 59.9737 68.516 61.8837C68.7664 62.4129 68.9668 62.8517 68.9541 62.8645C68.8664 62.942 60.5786 65.4459 57.9744 66.1814C57.1982 66.4007 56.5223 66.5943 56.4719 66.6071C56.3845 66.633 56.3719 66.6202 56.4094 66.4006C56.6973 64.5036 58.0996 62.0256 60.0526 59.9348C61.3547 58.5411 62.3939 57.7281 64.1716 56.6825C65.4486 55.9342 67.4142 54.8115 67.5644 54.7597C67.5645 54.7468 67.577 54.7468 67.5895 54.7468ZM87.1201 58.3475C87.1326 58.3347 87.433 58.5026 87.7961 58.7219C90.4753 60.3222 94.2061 61.8064 97.3859 62.5678L97.6741 62.6324L97.2733 62.8645C95.6083 63.8196 90.1372 66.1684 84.5411 68.3238C83.7272 68.6333 82.926 68.9432 82.7756 69.0077C82.6254 69.0721 82.4876 69.1109 82.4876 69.0981C82.4876 69.085 82.7131 68.6333 83.0008 68.0785C84.5658 65.0585 86.1434 61.3804 86.9446 58.8251C87.045 58.5799 87.1074 58.3606 87.1201 58.3475ZM85.1295 59.0187C85.1422 59.0319 85.0419 59.3027 84.9166 59.6124C83.8275 62.3355 82.4001 65.304 80.5723 68.6336C80.1092 69.4854 79.721 70.1695 79.7083 70.1695C79.696 70.1695 79.3203 69.937 78.8696 69.6532C76.2153 67.9754 73.8617 65.9105 72.3219 63.9101L72.0965 63.6261L73.2357 63.3034C77.3171 62.155 80.7849 60.916 84.228 59.3932C84.7163 59.1866 85.117 59.0187 85.1295 59.0187ZM97.4989 63.4712C97.5114 63.7681 96.8728 66.4267 96.347 68.3495C95.9088 69.9627 95.5331 71.2276 94.8446 73.4601C94.5442 74.4412 94.2815 75.254 94.2688 75.254C94.2563 75.254 94.1812 75.2412 94.1061 75.2155C90.3878 74.5184 87.0576 73.5505 83.9276 72.26C83.0511 71.8985 81.7993 71.3177 81.7241 71.2533C81.6992 71.2272 82.4504 70.8661 83.4019 70.4402C89.0983 67.8719 95.0075 64.9552 97.0356 63.7035C97.2734 63.5486 97.4613 63.4712 97.4989 63.4712ZM68.9417 64.4779C68.9667 64.5036 67.3767 66.8655 65.1481 70.079C64.372 71.2018 63.4706 72.5181 63.1326 73.0085C62.7945 73.499 62.2813 74.2734 61.9933 74.738L61.4673 75.5769L60.9038 75.0865C60.2403 74.5185 59.0886 73.3054 58.5753 72.6343C57.4985 71.2535 56.7726 69.7952 56.4846 68.466C56.3468 67.8464 56.3468 67.5365 56.4719 67.498C56.6596 67.4464 60.0024 66.6333 63.1325 65.8846C64.8727 65.4718 66.8882 64.9814 67.6144 64.8007C68.3406 64.6197 68.9292 64.4779 68.9417 64.4779ZM70.5441 65.1103L70.9446 65.5749C72.7476 67.6527 74.588 69.1888 76.8165 70.5307C77.2172 70.7631 77.5176 70.9695 77.4924 70.9826C77.405 71.0471 69.7553 73.8474 66.2123 75.1122C64.2218 75.8349 62.5816 76.4156 62.5693 76.4156C62.5568 76.4156 62.444 76.3383 62.3186 76.2479L62.0934 76.0801L62.4564 75.5381C63.6332 73.7829 65.1108 71.86 68.3283 67.8592L70.5441 65.1103ZM80.5349 72.4794C80.5472 72.4666 81.0981 72.6729 81.7741 72.9313C83.4019 73.5636 84.6911 73.9636 86.419 74.4154C88.5474 74.9704 91.6271 75.5124 93.4426 75.6672C93.718 75.6929 93.8683 75.7189 93.8182 75.7576C93.7303 75.8093 91.8902 76.4417 90.538 76.8805C88.3845 77.5772 81.8118 79.5776 76.4534 81.1651C75.4644 81.4619 74.613 81.7072 74.5629 81.72C74.4379 81.7459 74.0246 81.6296 74.0246 81.578C74.0246 81.5523 74.325 81.1523 74.6882 80.7134C76.4909 78.4936 78.2813 76.0157 79.7712 73.6669C80.1842 73.0214 80.5349 72.4923 80.5349 72.4794ZM78.3313 72.5441C78.3437 72.5569 77.4549 74.0281 75.9027 76.5576C75.239 77.6288 74.5003 78.8419 74.2373 79.2678C73.9869 79.6808 73.6114 80.3262 73.3986 80.6875L73.0355 81.3457L72.8477 81.2941C72.3969 81.165 69.2295 80.0163 68.3907 79.6679C67.3515 79.2419 66.2748 78.7258 65.4735 78.287C64.4721 77.732 63.2202 76.906 63.3202 76.8803C63.3452 76.8675 65.0605 76.3898 67.1261 75.8092C72.6098 74.2732 75.6519 73.3828 77.6427 72.7376C78.0059 72.6214 78.3188 72.531 78.3313 72.5441ZM93.9182 76.3123H93.9307C93.9808 76.4415 91.9528 82.2491 91.2138 84.0816C91.0513 84.4946 90.9889 84.598 90.901 84.5849C90.6882 84.5722 87.7462 84.1463 85.9557 83.8752C82.8384 83.3848 77.6052 82.4425 76.2907 82.1329L75.9903 82.0685L77.8554 81.6294C81.8618 80.7002 83.7898 80.1969 85.7428 79.5775C88.2093 78.8032 90.6507 77.8352 93.1169 76.6479C93.505 76.4672 93.8306 76.3253 93.9182 76.3123Z" fill="url(#paint0_linear_31_131)"/>
<path d="M84.6163 0.000493169C84.3408 -0.0380119 79.8962 1.6139 77.0293 2.81398C73.1606 4.4403 70.1561 5.98908 68.3031 7.33098C67.6147 7.83453 66.7506 8.72491 66.6131 9.0733C66.5631 9.20238 66.5379 9.35723 66.5379 9.51209L68.2156 11.1511L72.2093 12.4675L81.7117 14.2227L92.5786 16.1457L92.6914 15.1778C92.6539 15.1778 92.6287 15.165 92.5915 15.165L91.1639 14.9326L90.8761 14.4035C89.3988 11.719 87.7712 8.38931 86.8198 6.14369C86.0812 4.40138 85.3801 2.38829 84.9919 0.942767C84.779 0.0651837 84.7541 0.013586 84.6165 0.000731091V0.000433234H84.6163V0.000493169ZM84.4157 0.658889H84.4286C84.4409 0.671625 84.491 1.03323 84.5411 1.45887C84.7538 3.26593 85.1422 5.00794 85.7555 6.89225C86.2187 8.31194 86.2187 8.23458 85.6804 8.06669C84.4034 7.70544 78.682 6.68586 74.538 6.09221C73.8745 6.00181 73.311 5.91153 73.311 5.89868C73.261 5.84708 76.3032 4.2079 77.6428 3.56278C79.358 2.74953 84.0653 0.723342 84.4157 0.658889ZM72.3468 6.44061L72.8353 6.60819C75.4893 7.53755 82.1621 8.85399 85.8431 9.1637C86.2561 9.20244 86.6068 9.24124 86.6191 9.24124C86.6316 9.2541 86.2813 9.44769 85.8304 9.667C84.0528 10.5833 82.0997 11.7062 80.7475 12.5709C80.347 12.8289 79.9838 13.0355 79.9338 13.0355C79.8837 13.0355 79.6209 12.9839 79.3455 12.9451L78.8447 12.8676L77.5929 11.6027C75.3894 9.39598 73.6617 7.69247 72.9981 7.04705L72.3468 6.44061ZM71.8462 6.84059L73.6115 9.1121C74.5754 10.364 75.5519 11.5899 75.765 11.8608C75.9776 12.132 76.153 12.3515 76.1405 12.3644C76.0904 12.4031 73.5867 11.8996 72.2594 11.5901C70.8948 11.2673 70.3314 11.1125 69.4926 10.8416L68.804 10.6092V10.4284C68.8164 9.56363 69.8807 8.27314 71.6835 6.95688L71.8462 6.84059ZM86.8447 9.93802C86.8948 9.93802 86.9573 10.0541 87.1075 10.4026C87.5331 11.3705 88.8605 13.9775 89.1857 14.4808C89.2861 14.6487 89.4611 14.6616 87.6961 14.3647C83.452 13.6547 82.0872 13.4227 82.0872 13.3969C82.0872 13.384 82.2124 13.2936 82.3752 13.2032C83.6898 12.4548 85.0168 11.4997 86.1937 10.4801C86.4817 10.2349 86.7446 10.0026 86.7946 9.96379C86.807 9.93802 86.8322 9.92517 86.8447 9.93802Z" fill="url(#paint1_linear_31_131)"/>
<path d="M66.7005 8.8927C66.7005 8.8927 66.4252 9.34458 66.6881 10.0157C66.851 10.4286 67.3267 10.9318 67.8649 11.4481C67.8649 11.4481 73.4361 17.0492 74.1122 17.8495C77.1919 21.5146 78.5316 25.1282 78.6568 30.1099C78.7319 33.3105 78.1433 36.124 76.6787 39.3892C74.0746 45.2484 68.5784 51.7142 60.1026 58.8899L61.3423 58.4639C62.1435 57.8444 63.2327 57.1864 65.7866 55.7409C71.6833 52.411 78.3187 49.3523 86.4566 46.2034C98.1746 41.6604 117.443 36.3432 128.409 34.614L129.549 34.4332L129.374 34.1493C128.372 32.5489 127.683 31.5552 126.857 30.497C124.453 27.4254 121.537 24.9347 117.968 22.8697C113.061 20.0435 106.713 17.8366 98.6756 16.1975C97.1607 15.8877 93.8305 15.2941 91.1263 14.8682C85.3922 13.9521 81.6864 13.3196 77.6051 12.5969C76.1404 12.3386 73.9493 11.9516 72.497 11.629C71.7459 11.4611 70.3062 11.1127 69.1795 10.7126C68.2781 10.3511 66.9759 9.98971 66.7005 8.8927ZM69.9307 12.1193C69.9431 12.1065 70.1434 12.1837 70.4065 12.2741C70.8822 12.4417 71.4956 12.6354 72.2219 12.842C72.7714 12.9978 73.3223 13.1484 73.8745 13.2936C74.6256 13.4871 75.2515 13.6679 75.264 13.6679C75.3518 13.7583 76.6163 17.9265 77.042 19.5269C77.2045 20.1336 77.3299 20.6497 77.3174 20.6497C77.3045 20.6628 77.167 20.4433 77.0043 20.1465C75.5395 17.4878 73.2234 14.7906 70.5441 12.6223C70.1937 12.3645 69.9307 12.1321 69.9307 12.1193ZM76.0904 13.8744C76.153 13.8744 76.4284 13.9132 76.7663 13.9906C78.8947 14.4809 82.7132 15.2295 85.1545 15.6554C85.5676 15.7199 85.8933 15.7975 85.8933 15.8231C85.8933 15.8491 85.7429 15.9393 85.555 16.0426C85.142 16.2619 83.4768 17.2814 82.9261 17.6687C81.5363 18.6237 80.2845 19.6561 79.383 20.5853C79.02 20.9596 78.7068 21.2693 78.7068 21.2693C78.7068 21.2693 78.6319 21.05 78.5691 20.7788C78.1186 18.9849 77.1795 16.3263 76.3282 14.4551C76.1904 14.1583 76.0777 13.8872 76.0777 13.8615C76.0777 13.8873 76.0777 13.8744 76.0904 13.8744ZM86.9323 16.0039C87.0074 16.0296 87.1326 16.4684 87.3829 17.4363C87.8462 19.3078 88.0591 21.3985 87.984 23.3472C87.9588 23.8893 87.9339 24.3925 87.9087 24.4572L87.8712 24.5861L87.2202 24.3668C85.8806 23.928 83.7023 23.2697 81.837 22.7278C80.7726 22.4309 79.909 22.1599 79.909 22.1341C79.909 22.0566 81.4615 20.4563 82.1249 19.8498C83.3892 18.701 86.8195 15.9651 86.9323 16.0039ZM87.7961 16.1328C87.8338 16.0943 92.9793 17.0104 95.3205 17.4751C97.0608 17.8234 99.5897 18.3656 99.7399 18.4302C99.815 18.4559 99.552 18.6107 98.7131 18.9979C95.4081 20.5338 92.9541 21.9145 90.513 23.5924C89.8745 24.0312 89.3361 24.3925 89.3236 24.3925C89.3111 24.3925 89.2986 24.0184 89.2986 23.5666C89.2986 21.1146 88.8228 18.6366 87.9463 16.5459C87.8587 16.3394 87.7836 16.1459 87.7961 16.1328ZM101.104 18.8431C101.142 18.8818 100.979 19.9273 100.829 20.5467C100.378 22.4696 99.164 25.322 97.6743 28.0062C97.4111 28.4838 97.1734 28.871 97.1481 28.8838C97.1234 28.8967 96.7853 28.703 96.3971 28.4707C94.9449 27.5931 93.2923 26.7672 91.4894 25.9928C90.9888 25.7735 90.5505 25.5927 90.538 25.5671C90.4501 25.4895 94.4816 22.7406 96.6099 21.4242C98.3001 20.366 101.054 18.7914 101.104 18.8431ZM102.056 18.9979C102.169 18.9979 104.447 19.6433 105.636 20.0047C108.579 20.9081 111.959 22.1857 114.162 23.2181L115.076 23.6442L114.438 23.7989C109.055 25.0765 104.447 26.548 100.003 28.4063C99.6396 28.5612 99.314 28.6903 99.2892 28.6903C99.2641 28.6903 99.3893 28.3935 99.5521 28.032C100.892 25.1025 101.756 22.0438 101.968 19.4367C101.981 19.1914 102.018 18.9979 102.056 18.9979ZM79.3705 24.3668C79.408 24.328 81.1483 24.754 82.0872 25.0248C83.5144 25.4379 86.5441 26.4832 86.5441 26.5607C86.5441 26.5736 86.2062 26.8704 85.8057 27.2319C84.1656 28.6386 82.588 30.1226 80.6974 32.0069C80.134 32.562 79.6584 33.0137 79.6335 33.0137C79.6083 33.0137 79.596 32.9361 79.6083 32.8329C79.8962 30.6646 79.8338 27.8771 79.4331 25.0507C79.3954 24.6893 79.358 24.3797 79.3705 24.3668ZM115.94 24.4056C115.965 24.4313 115.139 25.7735 114.613 26.5348C113.862 27.6447 112.76 29.1162 110.269 32.3426C108.954 34.046 107.477 35.9691 106.989 36.6144C106.488 37.2596 106.075 37.8015 106.062 37.8015C106.05 37.8015 105.887 37.5694 105.712 37.2855C104.309 35.1172 102.632 33.2201 100.641 31.5166C100.266 31.1938 99.8526 30.8454 99.7148 30.7421C99.5771 30.6389 99.4643 30.5357 99.4643 30.5228C99.4643 30.4842 101.592 29.5419 103.208 28.8709C106.037 27.6835 109.893 26.2639 112.785 25.3475C114.3 24.8572 115.915 24.3797 115.94 24.4056ZM116.904 24.6635C116.954 24.6508 117.255 24.8056 117.618 25.0248C120.66 26.8187 123.64 29.1289 125.993 31.5036C126.657 32.1748 128.297 33.93 128.272 33.9429C128.272 33.9429 127.696 33.9945 127.02 34.046C121.749 34.4591 115.001 35.6076 108.516 37.2207C108.078 37.3239 107.69 37.4143 107.665 37.4143C107.64 37.4143 108.128 36.911 108.742 36.3045C112.548 32.5232 114.288 30.1356 116.341 25.8766C116.629 25.2444 116.879 24.7024 116.904 24.6635C116.892 24.6635 116.892 24.6635 116.904 24.6635ZM89.023 27.6062C89.1984 27.6447 90.8259 28.4323 92.0528 29.0645C93.1796 29.645 94.8698 30.5745 94.9574 30.6518C94.9699 30.6646 94.3688 30.9873 93.6305 31.3617C91.2766 32.5748 89.261 33.7233 87.1576 35.0397C86.5567 35.414 86.0559 35.7239 86.0435 35.7239C85.9934 35.7239 86.0058 35.672 86.3439 35.0397C87.4707 32.9233 88.372 30.3938 88.8855 27.9287C88.9354 27.7351 88.9855 27.6062 89.023 27.6062ZM87.3954 27.9158C87.433 27.9546 87.0074 29.5419 86.7446 30.4066C86.2311 32.0457 85.3673 34.0977 84.5286 35.6464C84.3281 36.0076 84.0277 36.5368 83.8649 36.8335L83.552 37.3498L82.8509 36.653C82.0372 35.8399 81.3735 35.3366 80.5224 34.8848C80.1841 34.7043 79.9213 34.5492 79.9213 34.5236C79.9213 34.4203 82.0622 32.42 83.7022 30.9745C84.879 29.9291 87.3579 27.8771 87.3954 27.9158ZM97.3487 32.1361L97.9623 32.5489C99.3641 33.4912 101.017 34.743 102.281 35.8399C102.995 36.4463 104.372 37.7242 104.648 38.0339L104.798 38.2019L103.784 38.4986C98.0497 40.1375 93.6178 41.5959 88.4471 43.5577C87.8712 43.777 87.3829 43.9576 87.3453 43.9576C87.2704 43.9576 87.2076 44.0221 88.4973 42.796C91.8025 39.6602 94.732 36.2012 96.9104 32.8328L97.3487 32.1361ZM94.7321 32.8072C94.757 32.8329 93.0419 35.3236 92.0152 36.7304C90.7883 38.4082 88.6098 41.2216 87.1075 43.0541C86.4817 43.8156 85.9434 44.448 85.9183 44.4609C85.8806 44.4738 85.8681 44.2803 85.8681 43.9834C85.8681 42.4217 85.4801 40.7568 84.804 39.3373C84.516 38.7437 84.4659 38.6017 84.5287 38.5372C84.7665 38.3177 88.4096 36.1754 90.7132 34.8978C92.2656 34.0461 94.6942 32.7813 94.7321 32.8072ZM78.9071 36.808C78.9448 36.808 79.2328 36.9627 79.5583 37.1435C80.3595 37.5951 81.0732 38.0984 81.7116 38.6406C81.7366 38.6663 81.4112 38.9375 80.9855 39.2599C79.7961 40.1375 77.9933 41.5443 76.9419 42.409C75.8399 43.3125 75.8026 43.3382 75.9276 43.1447C76.754 41.8412 77.167 41.1055 77.6053 40.1635C77.9933 39.3247 78.3814 38.3309 78.6568 37.4662C78.7569 37.0919 78.8822 36.808 78.9071 36.808ZM83.1264 40.215C83.1888 40.2022 83.2642 40.3182 83.602 40.8346C84.3157 41.9313 84.8665 43.4028 85.0045 44.5901L85.0292 44.8483L83.3143 45.5324C80.2468 46.7583 77.4175 47.9715 75.5018 48.8748C74.9636 49.133 74.0246 49.5975 73.4112 49.9074C72.7977 50.2299 72.2969 50.4751 72.2969 50.4623C72.2969 50.4494 72.6849 50.1526 73.1607 49.7911C76.9043 46.9907 80.1467 43.919 82.5755 40.8475C82.8384 40.5247 83.0764 40.2279 83.1012 40.215L83.1264 40.215ZM81.1859 40.7055C81.236 40.7571 79.8088 42.4218 78.8323 43.4414C76.416 45.984 74.0247 47.9715 71.0575 49.9074C70.6819 50.1526 70.3439 50.3719 70.3063 50.3978C70.2186 50.4494 70.3312 50.3203 71.6333 48.8619C72.4597 47.9456 73.0856 47.1712 73.7992 46.2164C74.275 45.5841 74.3627 45.4937 75.0513 44.9901C76.8918 43.6221 81.1358 40.6538 81.1859 40.7055Z" fill="url(#paint2_radial_31_131)"/>
<path d="M26.972 94.1442C26.741 94.1442 26.51 94.1669 26.2811 94.1669C21.6163 94.4231 18.4701 96.5394 16.6306 100.672C15.0573 104.41 15.2291 109.295 16.6483 113.056C18.2986 116.73 20.9652 118.67 25.4163 119.402C26.3581 119.561 26.9896 120.094 28.8136 122.289L31.058 125H35.1285L32.4219 122.187C30.9257 120.645 29.7155 119.302 29.7155 119.184C29.7155 119.066 30.2879 118.808 30.9807 118.59C33.2646 117.878 35.1613 116.059 36.488 113.271C37.5618 111.033 37.7159 110.341 37.8698 107.556C38.2726 99.2655 34.0325 94.0826 26.9718 94.1418L26.972 94.1442ZM30.5407 115.823C28.5605 116.812 25.685 117.009 23.808 116.299C21.8673 115.565 19.9883 113.487 19.1433 111.135C18.2038 108.563 18.3379 103.818 19.4117 101.681C21.1389 98.279 23.423 96.714 26.7607 96.714C31.7113 96.714 34.5276 99.8397 34.8951 105.714C35.1856 110.618 33.5926 114.297 30.5429 115.821L30.5407 115.823ZM100.857 101.225C99.15 101.225 97.843 101.938 96.9627 103.341L96.2719 104.453V101.563H93.3169V118.892H96.2699V113.353C96.2699 108.288 96.3312 107.696 97.0178 106.31C97.9641 104.41 99.5921 103.462 101.166 103.915L102.222 104.233V101.23H100.857V101.225ZM83.4972 101.066C82.9184 101.066 82.3044 101.146 81.6931 101.284C77.739 102.35 75.5101 106.251 75.6465 110.266C75.6465 113.628 76.28 115.308 77.8535 117.071C81.077 119.797 83.9923 120.014 87.9263 118.552C88.5975 118.257 89.3279 117.917 89.3279 117.917V115.19L87.9263 115.939C84.7425 117.368 82.3442 117.368 80.4232 115.685C79.1979 114.399 78.6586 112.856 78.4102 111.097H90.3246V108.76C90.3246 103.997 87.5435 100.989 83.4948 101.066H83.4972ZM78.6785 108.665C78.6785 108.665 79.1187 105.694 80.7512 104.528C81.5369 103.956 82.4389 103.68 83.3211 103.68C84.2057 103.68 85.088 103.974 85.8163 104.548C87.3127 105.734 87.5634 108.642 87.5634 108.642H78.6786V108.665H78.6785ZM7.43996 105.539C4.23645 103.539 2.81505 102.096 2.98886 100.395C3.48603 95.6887 9.1277 96.3397 12.252 98.1203L12.2742 94.9541C12.2742 94.9541 10.5469 94.1829 8.07147 94.142C4.27379 94.083 1.81828 95.3667 0.667682 97.9796C-1.02229 101.835 0.47409 104.743 5.88249 107.987C8.91879 109.808 10.2608 111.389 10.2608 113.113C10.2608 116.674 6.09577 117.917 1.79869 115.682C0.914339 115.229 0.166148 114.85 0.126577 114.85C-0.0275455 115.859 0.0519003 118.275 0.0519003 118.275C0.0519003 118.275 1.37214 118.847 3.3522 119.241C8.26303 120.25 12.732 117.876 13.1544 114.02C13.5219 110.4 12.2521 108.501 7.44016 105.537L7.43996 105.539ZM127.01 101.026C126.433 101.026 125.822 101.107 125.184 101.246C121.234 102.312 119.01 106.213 119.161 110.228C119.161 113.585 119.793 115.249 121.366 117.009C124.59 119.738 127.505 119.958 131.459 118.493C132.128 118.198 132.856 117.863 132.856 117.863V115.132L131.457 115.885C128.266 117.309 125.868 117.309 123.954 115.626C122.722 114.342 122.187 112.818 121.938 111.038H133.833V108.701C133.833 103.961 131.052 100.951 127.003 101.031L127.01 101.026ZM122.191 108.624C122.191 108.624 122.636 105.657 124.266 104.469C125.049 103.895 125.951 103.618 126.834 103.618C127.714 103.618 128.601 103.913 129.329 104.489C130.825 105.675 131.076 108.604 131.076 108.604H122.194L122.191 108.624ZM68.0291 105.578C64.8256 103.582 63.4085 102.135 63.5802 100.434C64.0773 95.7248 69.7191 96.3782 72.8434 98.1588L72.8655 94.9926C72.8655 94.9926 71.1382 94.2213 68.6628 94.1849C64.8651 94.126 62.4096 95.4098 61.2569 98.0226C59.5692 101.878 61.0852 104.786 66.4758 108.03C69.508 109.849 70.85 111.409 70.85 113.133C70.85 116.694 66.6871 117.957 62.3899 115.703C61.5098 115.249 60.7618 114.875 60.7178 114.875C60.5637 115.884 60.6431 118.3 60.6431 118.3C60.6431 118.3 61.9477 118.851 63.9214 119.266C68.8368 120.278 73.3078 117.905 73.7281 114.049C74.0934 110.447 72.826 108.549 68.0292 105.582V105.578H68.0291ZM144.372 101.185C142.665 101.185 141.343 101.899 140.478 103.303L139.787 104.41V101.525H136.832V118.849H139.785V113.31C139.785 108.248 139.844 107.653 140.533 106.27C141.479 104.371 143.107 103.421 144.68 103.877L145.736 104.194V101.185L144.372 101.185ZM44.5302 105.478V94.4411H41.5511V118.887H54.0796V116H44.5303V105.478H44.5302ZM113.425 108.919L110.97 115.506L108.609 108.882L106.211 101.543H103.161C105.137 107.318 107.286 113.192 109.454 118.887C110.393 118.91 111.335 118.887 112.274 118.887L115.59 110.305L118.968 101.545H116.053C116.053 101.545 114.765 105.024 113.423 108.921L113.425 108.919ZM51.395 87.7796C51.8747 87.7796 52.2751 87.6211 52.6052 87.2808C52.9307 86.945 53.1023 86.5503 53.1023 86.0559C53.1023 85.5614 52.9307 85.1486 52.6052 84.8311C52.2751 84.5136 51.8944 84.3546 51.4169 84.3546C50.9331 84.3546 50.5325 84.5136 50.2068 84.8491C49.8768 85.185 49.7272 85.5978 49.7272 86.0741C49.7272 86.5732 49.8813 86.9858 50.2068 87.299C50.5149 87.6164 50.9154 87.7752 51.395 87.7752V87.7796ZM50.339 84.9672C50.6249 84.6725 50.9726 84.5362 51.417 84.5362C51.8352 84.5362 52.1829 84.6725 52.4734 84.9672C52.7594 85.2621 52.9134 85.6204 52.9134 86.0559C52.9134 86.4914 52.7594 86.868 52.4734 87.1627C52.183 87.4574 51.8352 87.5982 51.417 87.5982C50.9924 87.5982 50.6469 87.4621 50.361 87.1627C50.075 86.868 49.921 86.4914 49.921 86.0559C49.921 85.6204 50.053 85.2622 50.339 84.9672ZM51.0495 86.2148H51.2431C51.3797 86.2148 51.5138 86.3508 51.6282 86.6094L51.8594 87.1445H52.2224L51.9364 86.5501C51.8198 86.3122 51.7055 86.1738 51.5712 86.135C51.7406 86.0942 51.8747 86.0353 51.9716 85.9172C52.0682 85.8154 52.1035 85.6769 52.1035 85.5203C52.1035 85.339 52.0485 85.203 51.9321 85.1031C51.8 84.9897 51.5887 84.9285 51.3158 84.9285H50.7044V87.1445H51.0123V86.2146L51.0495 86.2148ZM51.0495 85.185H51.3181C51.5117 85.185 51.6482 85.2258 51.7229 85.2847C51.7956 85.3437 51.8154 85.421 51.8154 85.5614C51.8154 85.8177 51.6612 85.9381 51.3753 85.9381H51.0454V85.185H51.0495ZM1.83796 86.0173C1.83796 85.2462 1.81604 84.6725 1.79839 84.3344H1.81604C1.89295 84.7334 1.98762 85.0307 2.06463 85.228L4.92488 91.8147H5.4046L8.26485 85.1691C8.34207 84.9878 8.41908 84.7155 8.51364 84.3366H8.53556C8.47843 84.9945 8.45865 85.566 8.45865 86.0218V91.8352H9.43757V83.1935H8.20986L5.58064 89.2041C5.48374 89.4421 5.34951 89.7985 5.17793 90.2702H5.13816C5.08103 90.0365 4.9468 89.6804 4.75544 89.2449L2.18537 83.1729H0.880755V91.8145H1.82244V86.0216L1.83796 86.0173ZM11.583 86.0335H12.4281V91.4156H11.583V86.0335ZM12.0055 84.06C12.1816 84.06 12.3312 83.9986 12.4456 83.8786C12.5622 83.7605 12.6393 83.6064 12.6393 83.425C12.6393 83.248 12.582 83.0892 12.4479 82.9714C12.3291 82.8511 12.1772 82.7897 12.0034 82.7897C11.8319 82.7897 11.6779 82.8511 11.5632 82.9714C11.4469 83.0892 11.3697 83.248 11.3697 83.425C11.3697 83.6224 11.4292 83.7605 11.5632 83.8786C11.6955 83.9986 11.8318 84.06 12.0034 84.06H12.0055ZM18.4525 91.5337V90.5854C17.9903 90.9416 17.4931 91.1186 16.9782 91.1186C16.3623 91.1186 15.8626 90.901 15.4974 90.4838C15.1344 90.0709 14.9408 89.4968 14.9408 88.7825C14.9408 88.034 15.1344 87.4395 15.5348 86.9859C15.9199 86.5505 16.4195 86.3327 17.0312 86.3327C17.5306 86.3327 18.01 86.4917 18.4526 86.8093V85.8C18.05 85.5822 17.5902 85.4823 17.0708 85.4823C16.1113 85.4823 15.3634 85.8 14.8046 86.4126C14.25 87.0249 13.964 87.8573 13.964 88.8622C13.964 89.7557 14.2125 90.5066 14.7298 91.0805C15.2688 91.6701 15.9577 91.9695 16.8025 91.9695C17.4557 91.9509 17.9903 91.8102 18.4525 91.5337ZM20.8705 88.6644C20.8705 87.9544 21.0245 87.3807 21.3105 86.9858C21.5791 86.6298 21.9046 86.4507 22.2896 86.4507C22.6153 86.4507 22.8463 86.5119 23.0156 86.6502V85.6204C22.8837 85.5615 22.6922 85.5411 22.4437 85.5411C22.0982 85.5411 21.7903 85.661 21.5196 85.8814C21.2336 86.1147 21.0048 86.4711 20.8706 86.9247H20.8486V85.6612H19.8915V91.8306H20.8508V88.6644H20.8705ZM26.3778 91.9531C27.28 91.9531 28.0061 91.6536 28.5451 91.0596C29.0818 90.4695 29.3503 89.6759 29.3503 88.6868C29.3503 87.6778 29.104 86.9065 28.6023 86.3324C28.1051 85.7589 27.414 85.4818 26.5118 85.4818C25.6096 85.4818 24.8835 85.7587 24.3446 86.2939C23.7682 86.8839 23.4645 87.7162 23.4645 88.7846C23.4645 89.7145 23.7109 90.4858 24.2303 91.0596C24.7671 91.6536 25.4778 91.9508 26.3778 91.9508V91.9531ZM25.0136 86.9269C25.3789 86.53 25.8587 86.3325 26.4526 86.3325C27.0689 86.3325 27.5308 86.53 27.8741 86.9269C28.2195 87.342 28.3912 87.9341 28.3912 88.7256C28.3912 89.4784 28.2371 90.0705 27.9114 90.4675C27.5859 90.8826 27.1062 91.1024 26.4724 91.1024C25.8564 91.1024 25.3789 90.8824 25.0136 90.4675C24.6507 90.0501 24.4768 89.4784 24.4768 88.7256C24.4394 87.9771 24.6309 87.3648 25.0136 86.9269ZM33.5509 91.4156C33.916 91.0801 34.1098 90.6672 34.1098 90.1498C34.1098 89.6962 33.9556 89.3198 33.6697 89.0226C33.4363 88.7847 33.0757 88.569 32.5542 88.3512C32.0919 88.1519 31.806 87.9747 31.6519 87.8363C31.4979 87.6777 31.4033 87.4805 31.4033 87.2013C31.4033 86.9451 31.5002 86.7477 31.6895 86.5889C31.8831 86.4304 32.1296 86.3533 32.4596 86.3533C32.9767 86.3533 33.4188 86.4938 33.8236 86.791V85.802C33.4364 85.6026 33.0161 85.5073 32.5364 85.5073C31.9204 85.5073 31.4011 85.6821 31.0181 86.0197C30.6154 86.3557 30.4242 86.7911 30.4242 87.3035C30.4242 87.7571 30.5561 88.1338 30.8068 88.4103C31.018 88.6463 31.3791 88.8868 31.8806 89.1021C32.3604 89.32 32.686 89.5171 32.8597 89.6758C33.0313 89.8348 33.1083 90.0319 33.1083 90.2658C33.1083 90.8417 32.7256 91.139 31.9774 91.139C31.4008 91.139 30.884 90.9439 30.4216 90.5493V91.615C30.8398 91.8739 31.3415 91.9917 31.8959 91.9917C32.6066 91.9532 33.1632 91.774 33.5461 91.4179L33.5509 91.4156ZM38.1186 85.482C37.2163 85.482 36.4903 85.7589 35.9513 86.2941C35.3792 86.8841 35.0712 87.7165 35.0712 88.7848C35.0712 89.7147 35.32 90.486 35.8369 91.0598C36.376 91.6538 37.0844 91.951 37.9866 91.951C38.9107 91.951 39.6149 91.6518 40.1539 91.0573C40.693 90.4677 40.9613 89.6738 40.9613 88.6848C40.9613 87.6755 40.7105 86.9044 40.2131 86.3305C39.6942 85.7566 39.003 85.4798 38.1229 85.4798L38.1186 85.482ZM39.98 88.7257C39.98 89.4785 39.826 90.0706 39.5004 90.4676C39.1747 90.8827 38.6949 91.1025 38.0612 91.1025C37.4449 91.1025 36.9676 90.8825 36.6023 90.4676C36.2393 90.0502 36.0655 89.4785 36.0655 88.7257C36.0655 87.9318 36.2571 87.3195 36.6421 86.9065C37.005 86.5119 37.4849 86.3122 38.0811 86.3122C38.6751 86.3122 39.1526 86.5117 39.4979 86.9065C39.8061 87.3419 39.9777 87.934 39.9777 88.7257H39.98ZM42.5721 91.8125H43.5292V86.4712H44.9307V85.6409H43.5291V84.6883C43.5291 83.822 43.8546 83.3865 44.528 83.3865C44.7546 83.3865 44.9857 83.4454 45.1574 83.5453V82.6541C44.9857 82.5747 44.7546 82.5566 44.4662 82.5566C43.9492 82.5566 43.5268 82.7155 43.1813 83.051C42.7785 83.4456 42.5653 83.9582 42.5653 84.6525V85.6641H41.5529V86.4942H42.5653V91.8154L42.5721 91.8125ZM46.5038 90.1295C46.5038 91.3363 47.021 91.9509 48.0771 91.9509C48.46 91.9509 48.7481 91.8875 48.9792 91.7468V90.8986C48.8032 91.0348 48.5941 91.0984 48.3632 91.0984C48.0377 91.0984 47.8088 91.0187 47.6745 90.8395C47.538 90.6628 47.4611 90.3632 47.4611 89.9503V86.4689H48.9791V85.6386H47.4611V83.8197C47.131 83.9376 46.8077 84.0375 46.5016 84.1371V85.6385H45.4675V86.4688H46.5016V90.1273L46.5038 90.1295ZM149.477 101.502C149.151 101.185 148.766 101.026 148.289 101.026C147.805 101.026 147.404 101.185 147.079 101.525C146.753 101.858 146.599 102.273 146.599 102.75C146.599 103.244 146.753 103.657 147.076 103.974C147.402 104.292 147.802 104.451 148.286 104.451C148.764 104.451 149.167 104.292 149.497 103.956C149.82 103.616 149.992 103.224 149.992 102.731C149.974 102.232 149.8 101.82 149.475 101.502L149.477 101.502ZM149.323 103.838C149.037 104.133 148.689 104.269 148.267 104.269C147.849 104.269 147.501 104.133 147.211 103.838C146.925 103.539 146.771 103.165 146.771 102.727C146.771 102.296 146.903 101.938 147.193 101.638C147.479 101.344 147.825 101.207 148.267 101.207C148.685 101.207 149.033 101.344 149.323 101.638C149.609 101.938 149.763 102.296 149.763 102.727C149.763 103.185 149.631 103.539 149.323 103.838ZM148.46 102.829C148.632 102.788 148.769 102.709 148.863 102.611C148.96 102.509 148.995 102.371 148.995 102.212C148.995 102.035 148.94 101.895 148.824 101.797C148.692 101.684 148.478 101.622 148.208 101.622H147.596V103.836H147.904V102.906H148.096C148.228 102.906 148.36 103.042 148.478 103.301L148.707 103.834H149.072L148.787 103.239C148.687 102.981 148.573 102.863 148.457 102.824L148.46 102.829ZM148.249 102.629H147.919V101.881H148.19C148.381 101.881 148.515 101.917 148.593 101.979C148.669 102.037 148.687 102.115 148.687 102.255C148.687 102.512 148.533 102.63 148.247 102.63L148.249 102.629ZM94.7187 85.3847H94.9871V83.1687H95.6976V82.8919H94.008V83.1687H94.7189V85.3847H94.7187ZM96.3468 83.7199C96.3468 83.5042 96.3469 83.3273 96.3314 83.2278C96.3491 83.3455 96.3886 83.4251 96.4063 83.484L97.2315 85.3847H97.3635L98.1906 83.4657C98.2129 83.4068 98.2305 83.3296 98.2678 83.2278C98.2501 83.4251 98.2501 83.5835 98.2501 83.704V85.3825H98.5362V82.8919H98.1906L97.4428 84.6112C97.4251 84.6726 97.3654 84.7926 97.3282 84.9288H97.3062C97.2908 84.8493 97.2513 84.77 97.1962 84.6341L96.4481 82.8921H96.0609V85.3871H96.3314V83.7223L96.3468 83.7199Z" fill="#989898"/>
</g>
<defs>
<linearGradient id="paint0_linear_31_131" x1="66.4447" y1="76.8257" x2="72.5268" y2="73.3394" gradientUnits="userSpaceOnUse">
<stop stop-color="#909CA9"/>
<stop offset="1" stop-color="#EDEDEE"/>
</linearGradient>
<linearGradient id="paint1_linear_31_131" x1="66.5818" y1="8.04787" x2="71.401" y2="8.04787" gradientUnits="userSpaceOnUse">
<stop stop-color="#939FAB"/>
<stop offset="1" stop-color="#DCDEE1"/>
</linearGradient>
<radialGradient id="paint2_radial_31_131" cx="0" cy="0" r="1" gradientUnits="userSpaceOnUse" gradientTransform="translate(90.8994 30.8319) rotate(-171.198) scale(6.21755 12.8041)">
<stop stop-color="#EE352C"/>
<stop offset="1" stop-color="#A91D22"/>
</radialGradient>
<clipPath id="clip0_31_131">
<rect width="150" height="125" fill="white"/>
</clipPath>
</defs>
</svg>
