<svg width="150" height="150" viewBox="0 0 150 150" fill="none" xmlns="http://www.w3.org/2000/svg">
<path d="M129.75 20.25H20.25V129.75H129.75V20.25Z" fill="#F7DF1E"/>
<path d="M49.05 111.75L57.42 106.68C59.04 109.56 60.51 111.96 64.02 111.96C67.41 111.96 69.54 110.64 69.54 105.48V70.53H79.83V105.66C79.83 116.31 73.59 121.17 64.47 121.17C56.25 121.17 51.48 116.91 49.05 111.75Z" fill="#211E1E"/>
<path d="M85.44 110.64L93.81 105.78C96.03 109.38 98.88 112.02 103.95 112.02C108.21 112.02 110.94 109.89 110.94 106.95C110.94 103.41 108.15 102.18 103.44 100.11L100.86 99C93.45 95.85 88.5 91.86 88.5 83.49C88.5 75.78 94.38 69.9 103.56 69.9C110.1 69.9 114.81 72.18 118.2 78.12L110.19 83.25C108.42 80.1 106.53 78.84 103.59 78.84C100.59 78.84 98.67 80.76 98.67 83.25C98.67 86.34 100.59 87.6 105 89.49L107.58 90.6C116.34 94.35 121.26 98.16 121.26 106.77C121.26 116.04 113.97 121.11 104.22 121.11C94.62 121.17 88.44 116.61 85.44 110.64Z" fill="#211E1E"/>
</svg>
