<svg width="100" height="100" viewBox="0 0 100 100" fill="none" xmlns="http://www.w3.org/2000/svg">
<g clip-path="url(#clip0_2_38)">
<path d="M91.7945 13.8253C96.3001 13.8253 99.9867 17.5119 99.9867 22.0175V24.3924L88.6051 32.5224L49.8569 59.2142L11.1086 32.2517V86.1746H8.1922C3.68662 86.1746 -3.05176e-05 82.4881 -3.05176e-05 77.9825V22.0197C-3.05176e-05 17.5141 3.68662 13.8275 8.1922 13.8275L49.8569 44.7186L91.7922 13.8275L91.7945 13.8253Z" fill="#E75A4D"/>
<path d="M8.19223 13.8253L49.8569 44.7164L91.7945 13.8253H8.19223Z" fill="url(#paint0_linear_2_38)"/>
<path d="M11.1086 32.2517V86.1746H88.6074V32.5224L49.8569 59.2142L11.1086 32.2517Z" fill="#E7E4D7"/>
<path d="M11.1086 86.1746L49.8569 59.2142L49.6815 59.0901L11.1086 85.582V86.1746Z" fill="#B8B7AE"/>
<path d="M88.6074 32.5224L88.6295 86.1746L49.8569 59.2142L88.6074 32.5224Z" fill="#B7B6AD"/>
<path d="M99.9868 24.3924L100 77.9891C99.8048 83.9463 97.2235 86.0726 88.6295 86.1725L88.6074 32.5202L99.989 24.3902L99.9868 24.3924Z" fill="#B2392F"/>
<path d="M8.19223 13.8253L49.8569 44.7164L91.7945 13.8253H8.19223Z" fill="url(#paint1_linear_2_38)"/>
<path d="M8.19223 13.8253L49.8569 44.7164L91.7945 13.8253H8.19223Z" fill="url(#paint2_linear_2_38)"/>
<path d="M8.19223 13.8253L49.8569 44.7164L91.7945 13.8253H8.19223Z" fill="url(#paint3_linear_2_38)"/>
<path d="M8.19223 13.8253L49.8569 44.7164L91.7945 13.8253H8.19223Z" fill="url(#paint4_linear_2_38)"/>
<path d="M8.19223 13.8253L49.8569 44.7164L91.7945 13.8253H8.19223Z" fill="url(#paint5_linear_2_38)"/>
<path d="M8.19223 13.8253L49.8569 44.7164L91.7945 13.8253H8.19223Z" fill="url(#paint6_linear_2_38)"/>
<path d="M8.19223 13.8253L49.8569 44.7164L91.7945 13.8253H8.19223Z" fill="url(#paint7_linear_2_38)"/>
<path d="M8.19223 13.8253L49.8569 44.7164L91.7945 13.8253H8.19223Z" fill="#F7F5ED"/>
</g>
<defs>
<linearGradient id="paint0_linear_2_38" x1="23.2341" y1="29.2735" x2="76.651" y2="29.2735" gradientUnits="userSpaceOnUse">
<stop stop-color="#F8F6EF"/>
<stop offset="1" stop-color="#E7E4D6"/>
</linearGradient>
<linearGradient id="paint1_linear_2_38" x1="23.2341" y1="29.2735" x2="76.651" y2="29.2735" gradientUnits="userSpaceOnUse">
<stop stop-color="#F8F6EF"/>
<stop offset="1" stop-color="#E7E4D6"/>
</linearGradient>
<linearGradient id="paint2_linear_2_38" x1="23.2341" y1="29.2735" x2="76.651" y2="29.2735" gradientUnits="userSpaceOnUse">
<stop stop-color="#F8F6EF"/>
<stop offset="1" stop-color="#E7E4D6"/>
</linearGradient>
<linearGradient id="paint3_linear_2_38" x1="23.2341" y1="29.2735" x2="76.651" y2="29.2735" gradientUnits="userSpaceOnUse">
<stop stop-color="#F8F6EF"/>
<stop offset="1" stop-color="#E7E4D6"/>
</linearGradient>
<linearGradient id="paint4_linear_2_38" x1="23.2341" y1="29.2735" x2="76.651" y2="29.2735" gradientUnits="userSpaceOnUse">
<stop stop-color="#F8F6EF"/>
<stop offset="1" stop-color="#E7E4D6"/>
</linearGradient>
<linearGradient id="paint5_linear_2_38" x1="23.2341" y1="29.2735" x2="76.651" y2="29.2735" gradientUnits="userSpaceOnUse">
<stop stop-color="#F8F6EF"/>
<stop offset="1" stop-color="#E7E4D6"/>
</linearGradient>
<linearGradient id="paint6_linear_2_38" x1="23.2341" y1="29.2735" x2="76.651" y2="29.2735" gradientUnits="userSpaceOnUse">
<stop stop-color="#F8F6EF"/>
<stop offset="1" stop-color="#E7E4D6"/>
</linearGradient>
<linearGradient id="paint7_linear_2_38" x1="23.2341" y1="29.2735" x2="76.651" y2="29.2735" gradientUnits="userSpaceOnUse">
<stop stop-color="#F8F6EF"/>
<stop offset="1" stop-color="#E7E4D6"/>
</linearGradient>
<clipPath id="clip0_2_38">
<rect width="100" height="100" fill="white"/>
</clipPath>
</defs>
</svg>
