<svg width="145" height="125" viewBox="0 0 145 125" fill="none" xmlns="http://www.w3.org/2000/svg">
<g clip-path="url(#clip0_31_87)">
<path fill-rule="evenodd" clip-rule="evenodd" d="M21.8729 101.146V91.6353C21.8729 90.3855 22.6342 89.3816 23.895 89.3816H24.2439C25.5041 89.3816 26.262 90.3867 26.262 91.6353V111.659C26.262 116.542 23.9114 120.427 19.8152 122.902C17.9387 124.043 15.7968 124.643 13.6158 124.637H12.7453C7.98633 124.637 4.20557 122.223 1.78985 118.022C0.676574 116.097 0.0924918 113.898 0.0996904 111.659V110.767C0.0996904 105.882 2.45141 101.999 6.54426 99.5193C8.42033 98.376 10.5634 97.7763 12.7453 97.7841H13.6158C16.8364 97.7841 19.5688 99.0653 21.8729 101.146ZM4.48821 111.212C4.48821 114.739 6.15401 117.391 9.16559 119.082C10.3834 119.766 11.7054 120.133 13.0947 120.133C16.4683 120.133 18.9706 118.5 20.6965 115.566C21.4991 114.201 21.8729 112.708 21.8729 111.121C21.8729 108.063 20.4626 105.677 18.0616 103.905C16.6059 102.83 14.9673 102.291 13.1803 102.291C9.50317 102.291 6.85692 104.198 5.26871 107.585C4.73289 108.73 4.48821 109.945 4.48821 111.212ZM41.4881 97.7841H42.0964C47.1816 97.7841 51.0491 100.316 53.4999 104.871C54.4798 106.694 55.0043 108.683 55.0043 110.767V111.659C55.0043 116.542 52.6582 120.432 48.5557 122.903C46.6566 124.046 44.5586 124.637 42.3576 124.637H41.4881C36.7292 124.637 32.9473 122.223 30.5327 118.022C29.4189 116.097 28.8342 113.898 28.8408 111.659V110.767C28.8408 105.881 31.2022 102.011 35.2848 99.5204C37.1829 98.3631 39.2825 97.7841 41.4881 97.7841ZM33.2299 111.212C33.2299 114.636 34.8668 117.154 37.6847 118.926C39.0078 119.757 40.4652 120.133 42.0109 120.133C45.3074 120.133 47.7441 118.418 49.4399 115.563C50.2487 114.201 50.6146 112.706 50.6146 111.121C50.6146 107.937 49.1204 105.505 46.566 103.742C45.1664 102.776 43.6082 102.291 41.9226 102.291C38.2454 102.291 35.5992 104.198 34.0116 107.585C33.4746 108.73 33.2299 109.945 33.2299 111.212ZM73.2499 102.651C72.5872 102.333 71.3468 102.227 70.6309 102.199C66.9639 102.057 64.3109 104.177 62.7544 107.496C62.2169 108.641 61.9716 109.853 61.9716 111.121C61.9716 114.979 63.9456 117.68 67.301 119.327C68.5267 119.928 70.1092 120.042 71.4487 120.042C72.6269 120.042 74.2921 119.301 75.3377 118.791L75.5189 118.703H76.3306L76.4201 118.722C77.4181 118.935 78.1714 119.584 78.1714 120.686V121.132C78.1714 123.875 73.2879 124.502 71.4244 124.636C64.8484 125.103 59.9303 121.397 58.0555 114.959C57.7298 113.842 57.5831 112.731 57.5831 111.566V110.675C57.5831 105.791 59.945 101.922 64.0271 99.4332C65.9252 98.2765 68.0243 97.6952 70.2293 97.6952H71.0993C73.4385 97.6952 75.5931 98.377 77.5246 99.7309L77.6832 99.8436L77.7834 100.013C77.9919 100.368 78.1714 100.778 78.1714 101.2V101.646C78.1714 102.796 77.3331 103.414 76.3215 103.614L76.2377 103.63H75.9783C75.3235 103.63 73.8344 102.934 73.2499 102.651ZM87.486 105.701C89.1908 103.949 90.9014 102.201 92.6318 100.478C93.1138 99.9971 94.9393 97.9626 95.6581 97.9626H96.4443L96.5337 97.9818C97.5351 98.1951 98.2851 98.8456 98.2851 99.95V100.395C98.2851 101.149 97.4253 102.024 96.9512 102.54C95.943 103.637 94.8815 104.697 93.8495 105.772L88.5468 111.296C90.83 113.645 93.1109 115.995 95.3754 118.361C96.0035 119.014 96.6268 119.672 97.2451 120.335C97.4632 120.571 97.7849 120.864 97.9679 121.19C98.1644 121.495 98.2851 121.84 98.2851 122.208V122.673L98.2596 122.781C98.0132 123.808 97.3777 124.637 96.2681 124.637H95.9186C95.1925 124.637 94.3723 123.794 93.875 123.313C92.8498 122.321 91.8603 121.278 90.8555 120.265L87.486 116.87V122.296C87.486 123.546 86.7236 124.55 85.4645 124.55H85.119C83.8581 124.55 83.0969 123.546 83.0969 122.296V91.7225C83.0969 90.4727 83.8587 89.4729 85.119 89.4729H85.4645C86.7236 89.4729 87.486 90.4727 87.486 91.7225V105.701ZM142.188 97.9626H142.624C143.94 97.9626 144.819 98.8729 144.819 100.216C144.819 102.081 143.082 102.558 141.579 102.558C139.608 102.558 137.726 103.783 136.367 105.157C134.673 106.871 133.931 109.066 133.931 111.48V122.384C133.931 123.634 133.171 124.637 131.909 124.637H131.563C130.301 124.637 129.541 123.635 129.541 122.384V110.854C129.541 106.426 131.641 102.812 135.143 100.277C137.233 98.7624 139.628 97.9626 142.188 97.9626ZM110.994 119.573C112.591 120.145 114.412 120.063 116.05 119.77C116.889 119.405 119.032 118.445 119.82 118.585L119.943 118.607L120.057 118.664C120.538 118.903 120.997 119.242 121.243 119.745C121.818 120.923 121.542 122.108 120.413 122.777L120.038 123C115.875 125.466 111.447 125.124 107.297 122.821C105.312 121.72 103.795 120.086 102.675 118.094L102.413 117.628C99.7402 112.878 100.101 107.881 103.115 103.364C104.156 101.803 105.516 100.596 107.106 99.653L107.707 99.2966C111.628 96.9738 115.83 97.1331 119.857 99.1717C122.022 100.268 123.776 101.902 124.985 104.051L125.202 104.438C126.08 105.999 124.943 107.36 123.769 108.29C122.406 109.369 121.03 110.667 119.724 111.824C116.812 114.404 113.904 116.99 110.994 119.573ZM107.224 116.856C110.481 113.99 113.739 111.121 116.987 108.243C118.097 107.261 119.315 106.241 120.416 105.208C119.532 104.066 118.056 103.242 116.802 102.751C114.27 101.761 111.774 102.093 109.452 103.469C106.414 105.269 105.119 108.137 105.233 111.705C105.278 113.111 105.646 114.465 106.373 115.661C106.629 116.082 106.915 116.478 107.224 116.856ZM83.5381 26.5951H96.4896V40.1826H103.038C106.062 40.1826 109.173 39.6298 112.036 38.6341C113.444 38.1441 115.023 37.4628 116.411 36.6054C114.583 34.1559 113.649 31.0628 113.375 28.014C113.001 23.8665 113.817 18.4687 116.552 15.2227L117.913 13.6068L119.535 14.9455C123.62 18.3129 127.055 23.019 127.661 28.3837C132.579 26.8991 138.353 27.2502 142.688 29.8177L144.466 30.871L143.531 32.7462C139.864 40.0891 132.199 42.3642 124.706 41.9614C113.493 70.6241 89.0798 84.1936 59.48 84.1936C44.187 84.1936 30.1572 78.3267 22.1674 64.4025L22.0366 64.1758L20.8726 61.7449C18.172 55.6158 17.2748 48.9014 17.8831 42.1922L18.0661 40.1826H29.1416V26.5951H42.0925V13.3033H67.9959V0.0116272H83.5381V26.5951Z" fill="#3F636A"/>
<path fill-rule="evenodd" clip-rule="evenodd" d="M125.499 31.622C126.367 24.6954 121.316 19.2551 118.184 16.6719C114.574 20.9548 114.014 32.1795 119.677 36.9053C116.516 39.7862 109.857 42.3974 103.038 42.3974H20.0338C19.3711 49.7024 20.6206 56.4296 23.4747 62.1873L24.4189 63.9602C25.0168 65.0008 25.6701 66.0068 26.3758 66.9736C29.7884 67.1985 32.9348 67.2759 35.8133 67.2108H35.8144C41.4711 67.0829 46.0868 66.397 49.5849 65.153C49.8322 65.0741 50.0997 65.0969 50.3309 65.2168C50.5621 65.3366 50.7388 65.544 50.8236 65.7952C50.9084 66.0463 50.8947 66.3214 50.7855 66.5624C50.6762 66.8034 50.4798 66.9913 50.238 67.0864C49.7724 67.2526 49.2875 67.4072 48.7868 67.5543H48.7851C46.0307 68.3617 43.0769 68.9046 39.2661 69.1459C39.4927 69.1499 39.0305 69.1807 39.0294 69.1807C38.8997 69.1895 38.7365 69.2086 38.6063 69.2156C37.1064 69.3022 35.4876 69.3202 33.8326 69.3202C32.0223 69.3202 30.2399 69.2854 28.2467 69.1807L28.1957 69.2156C35.1115 77.1932 45.9254 81.9778 59.4806 81.9778C88.1679 81.9778 112.501 68.9267 123.276 39.6269C130.92 40.432 138.267 38.4312 141.609 31.736C136.286 28.5836 129.44 29.5887 125.499 31.622Z" fill="#22A0C8"/>
<path fill-rule="evenodd" clip-rule="evenodd" d="M125.499 31.622C126.367 24.6954 121.316 19.2551 118.184 16.6719C114.574 20.9548 114.014 32.1795 119.677 36.9054C116.516 39.7862 109.857 42.3974 103.038 42.3974H24.9491C24.6104 53.5848 28.6556 62.0768 35.8127 67.2108H35.8144C41.4711 67.0829 46.0868 66.397 49.5849 65.153C49.8322 65.0741 50.0997 65.0969 50.3309 65.2168C50.5621 65.3366 50.7388 65.544 50.8236 65.7952C50.9084 66.0463 50.8947 66.3215 50.7855 66.5624C50.6762 66.8034 50.4798 66.9913 50.238 67.0864C49.7724 67.2526 49.2875 67.4072 48.7868 67.5543H48.7851C46.0307 68.3617 42.8231 68.9744 39.0124 69.2156C39.0112 69.2156 38.92 69.1255 38.9189 69.1255C48.6821 74.2653 62.8382 74.2467 79.0686 67.8484C97.2673 60.673 114.202 47.0035 126.018 31.3686C125.84 31.4511 125.667 31.5354 125.499 31.622Z" fill="#37B1D9"/>
<path fill-rule="evenodd" clip-rule="evenodd" d="M20.1895 51.273C20.705 55.1863 21.8208 58.8501 23.4747 62.1873L24.4189 63.9602C25.0166 65.0009 25.67 66.0069 26.3758 66.9736C29.789 67.1986 32.9354 67.2759 35.8144 67.2108C41.4711 67.0829 46.0868 66.397 49.5849 65.153C49.8322 65.0741 50.0997 65.0969 50.3309 65.2168C50.5621 65.3366 50.7387 65.544 50.8236 65.7952C50.9084 66.0463 50.8947 66.3215 50.7854 66.5624C50.6761 66.8034 50.4798 66.9913 50.238 67.0864C49.7724 67.2526 49.2875 67.4072 48.7868 67.5543H48.7851C46.0307 68.3617 42.8401 68.9395 39.0293 69.1813C38.8985 69.1895 38.6702 69.1912 38.5383 69.1988C37.0396 69.2848 35.4372 69.3377 33.7816 69.3377C31.9719 69.3377 30.1209 69.3022 28.1289 69.1982C35.0447 77.1758 45.9253 81.9778 59.4806 81.9778C84.04 81.9778 105.407 72.411 117.809 51.273H20.1895Z" fill="#1B81A5"/>
<path fill-rule="evenodd" clip-rule="evenodd" d="M25.6962 51.273C27.1643 58.1438 30.6924 63.5376 35.8144 67.2108C41.4711 67.0829 46.0868 66.397 49.5849 65.153C49.8322 65.0741 50.0997 65.0969 50.3309 65.2168C50.5621 65.3366 50.7388 65.544 50.8236 65.7952C50.9084 66.0463 50.8947 66.3215 50.7854 66.5624C50.6762 66.8034 50.4798 66.9913 50.238 67.0864C49.7724 67.2526 49.2875 67.4072 48.7868 67.5543H48.7851C46.0307 68.3617 42.7727 68.9395 38.9614 69.1813C48.724 74.3199 62.8394 74.2461 79.0686 67.8484C88.8867 63.9771 98.336 58.2142 106.813 51.273H25.6962Z" fill="#1D91B4"/>
<path fill-rule="evenodd" clip-rule="evenodd" d="M31.2996 28.8103H42.5246V40.3303H31.2996V28.8103ZM32.2347 29.7706H33.1206V39.3706H32.2347V29.7706ZM33.9 29.7706H34.8215V39.3706H33.9005L33.9 29.7706ZM35.6003 29.7706H36.5219V39.3706H35.6003V29.7706ZM37.3018 29.7706H38.2228V39.3706H37.3018V29.7706ZM39.0027 29.7706H39.9237V39.3706H39.0027V29.7706ZM40.7031 29.7706H41.5895V39.3706H40.7031V29.7706ZM44.2511 15.5186H55.4767V27.038H44.2505L44.2511 15.5186ZM45.1868 16.4789H46.0721V26.0783H45.1868V16.4789ZM46.852 16.4789H47.773V26.0783H46.8526L46.852 16.4789ZM48.5523 16.4789H49.4733V26.0783H48.5523V16.4789ZM50.2533 16.4789H51.1742V26.0783H50.2533V16.4789ZM51.9542 16.4789H52.8757V26.0783H51.9542V16.4789ZM53.6545 16.4789H54.5415V26.0783H53.6545V16.4789Z" fill="#23A3C2"/>
<path fill-rule="evenodd" clip-rule="evenodd" d="M44.2511 28.8103H55.4767V40.3303H44.2505L44.2511 28.8103ZM45.1868 29.7706H46.0721V39.3706H45.1868V29.7706ZM46.852 29.7706H47.773V39.3706H46.8526L46.852 29.7706ZM48.5523 29.7706H49.4733V39.3706H48.5523V29.7706ZM50.2533 29.7706H51.1742V39.3706H50.2533V29.7706ZM51.9542 29.7706H52.8757V39.3706H51.9542V29.7706ZM53.6545 29.7706H54.5415V39.3706H53.6545V29.7706Z" fill="#34BBDE"/>
<path fill-rule="evenodd" clip-rule="evenodd" d="M57.2031 28.8103H68.4281V40.3303H57.2031V28.8103ZM58.1382 29.7706H59.0235V39.3706H58.1382V29.7706ZM59.8034 29.7706H60.7244V39.3706H59.8034V29.7706ZM61.5044 29.7706H62.4253V39.3706H61.5044V29.7706ZM63.2053 29.7706H64.1263V39.3706H63.2053V29.7706ZM64.9056 29.7706H65.8277V39.3706H64.9056V29.7706ZM66.6065 29.7706H67.4924V39.3706H66.6065V29.7706Z" fill="#23A3C2"/>
<path fill-rule="evenodd" clip-rule="evenodd" d="M57.2031 15.5186H68.4281V27.038H57.2031V15.5186ZM58.1382 16.4789H59.0235V26.0783H58.1382V16.4789ZM59.8034 16.4789H60.7244V26.0783H59.8034V16.4789ZM61.5044 16.4789H62.4253V26.0783H61.5044V16.4789ZM63.2053 16.4789H64.1263V26.0783H63.2053V16.4789ZM64.9056 16.4789H65.8277V26.0783H64.9056V16.4789ZM66.6065 16.4789H67.4924V26.0783H66.6065V16.4789ZM70.1545 28.8103H81.3796V40.3303H70.1545V28.8103ZM71.0902 29.7706H71.9755V39.3706H71.0902V29.7706ZM72.7555 29.7706H73.6764V39.3706H72.7555V29.7706ZM74.4558 29.7706H75.3768V39.3706H74.4558V29.7706ZM76.1567 29.7706H77.0783V39.3706H76.1567V29.7706ZM77.8576 29.7706H78.7792V39.3706H77.8576V29.7706ZM79.5586 29.7706H80.4444V39.3706H79.5586V29.7706Z" fill="#34BBDE"/>
<path fill-rule="evenodd" clip-rule="evenodd" d="M70.1545 15.5186H81.3795V27.038H70.1545V15.5186ZM71.0902 16.4789H71.9755V26.0783H71.0902V16.4789ZM72.7554 16.4789H73.6764V26.0783H72.7554V16.4789ZM74.4558 16.4789H75.3768V26.0783H74.4558V16.4789ZM76.1567 16.4789H77.0783V26.0783H76.1567V16.4789ZM77.8576 16.4789H78.7792V26.0783H77.8576V16.4789ZM79.5586 16.4789H80.4444V26.0783H79.5586V16.4789Z" fill="#23A3C2"/>
<path fill-rule="evenodd" clip-rule="evenodd" d="M70.1545 2.22633H81.3795V13.7474H70.1545V2.22633ZM71.0902 3.18604H71.9755V12.7866H71.0902V3.18604ZM72.7554 3.18604H73.6764V12.7866H72.7554V3.18604ZM74.4558 3.18604H75.3768V12.7866H74.4558V3.18604ZM76.1567 3.18604H77.0783V12.7866H76.1567V3.18604ZM77.8576 3.18604H78.7792V12.7866H77.8576V3.18604ZM79.5586 3.18604H80.4444V12.7866H79.5586V3.18604Z" fill="#34BBDE"/>
<path fill-rule="evenodd" clip-rule="evenodd" d="M83.106 28.8103H94.331V40.3303H83.106V28.8103ZM84.0405 29.7706H84.927V39.3706H84.0411V29.7706H84.0405ZM85.7058 29.7706H86.6273V39.3706H85.7063L85.7058 29.7706ZM87.4072 29.7706H88.3288V39.3706H87.4072V29.7706ZM89.1076 29.7706H90.0291V39.3706H89.1076V29.7706ZM90.8091 29.7706H91.7301V39.3706H90.8091V29.7706ZM92.5094 29.7706H93.3953V39.3706H92.5094V29.7706Z" fill="#23A3C2"/>
<path fill-rule="evenodd" clip-rule="evenodd" d="M54.7738 59.0076C55.184 59.002 55.5912 59.0801 55.9717 59.2373C56.3523 59.3945 56.6986 59.6278 56.9906 59.9235C57.2826 60.2193 57.5144 60.5716 57.6726 60.9601C57.8308 61.3485 57.9122 61.7654 57.9122 62.1864C57.9121 62.6074 57.8305 63.0242 57.6722 63.4126C57.5138 63.801 57.2819 64.1532 56.9898 64.4489C56.6977 64.7445 56.3513 64.9776 55.9707 65.1347C55.5901 65.2918 55.1828 65.3698 54.7726 65.364C53.9585 65.3525 53.1816 65.0126 52.6099 64.4177C52.0382 63.8228 51.7178 63.0208 51.718 62.1852C51.7181 61.3497 52.0388 60.5478 52.6107 59.9531C53.1826 59.3584 53.9597 59.0188 54.7738 59.0076Z" fill="#D3ECEC"/>
<path fill-rule="evenodd" clip-rule="evenodd" d="M54.7738 59.9092C55.057 59.9092 55.3271 59.9638 55.5763 60.0632C55.4044 60.1657 55.2701 60.3234 55.1942 60.5121C55.1183 60.7007 55.105 60.9097 55.1565 61.1069C55.2079 61.304 55.3212 61.4783 55.4788 61.6027C55.6363 61.7272 55.8295 61.7949 56.0283 61.7955C56.371 61.7955 56.6684 61.6007 56.8224 61.3124C57.0049 61.7634 57.0411 62.2626 56.9258 62.7363C56.8105 63.21 56.5499 63.6332 56.1823 63.9432C55.8147 64.2532 55.3597 64.4336 54.8845 64.4579C54.4094 64.4821 53.9392 64.3489 53.5434 64.0778C53.1477 63.8068 52.8474 63.4123 52.6869 62.9526C52.5264 62.493 52.5142 61.9925 52.6521 61.5252C52.7901 61.0579 53.0708 60.6485 53.4528 60.3575C53.8349 60.0665 54.298 59.9093 54.7738 59.9092ZM0 52.4216H144.052C140.916 51.6055 134.129 50.5022 135.248 46.2832C129.544 53.0564 115.79 51.0353 112.319 47.6958C108.454 53.4494 85.9504 51.262 84.3809 46.7797C79.5348 52.6164 64.5188 52.6164 59.6726 46.7797C58.102 51.262 35.5992 53.4494 31.7335 47.6952C28.2625 51.0353 14.5091 53.0564 8.80535 46.2838C9.92457 50.5022 3.13732 51.6049 0 52.4216Z" fill="#364548"/>
<path fill-rule="evenodd" clip-rule="evenodd" d="M63.0053 81.9092C55.3362 78.1744 51.1272 73.0969 48.7851 67.5549C45.9361 68.389 42.5122 68.9226 38.5332 69.1517C37.0345 69.2377 35.4576 69.2819 33.8037 69.2819C31.896 69.2819 29.8859 69.2237 27.7754 69.1092C34.8085 76.323 43.4603 81.8766 59.4806 81.9778C60.6632 81.9778 61.8368 81.9545 63.0053 81.9092Z" fill="#BDD9D7"/>
<path fill-rule="evenodd" clip-rule="evenodd" d="M51.6336 72.669C50.5727 71.1908 49.5435 69.333 48.7868 67.5537C45.9378 68.389 42.5127 68.9226 38.5332 69.1523C41.2666 70.6746 45.1749 72.0854 51.6336 72.669Z" fill="#D3ECEC"/>
</g>
<defs>
<clipPath id="clip0_31_87">
<rect width="145" height="125" fill="white"/>
</clipPath>
</defs>
</svg>
