<svg width="100" height="100" viewBox="0 0 100 100" fill="none" xmlns="http://www.w3.org/2000/svg">
<g clip-path="url(#clip0_2_56)">
<rect width="100" height="100" rx="50" fill="white"/>
<path d="M50 0C22.3875 0 0 22.3875 0 50C0 77.6125 22.3875 100 50 100C77.6125 100 100 77.6125 100 50C100 22.3875 77.6125 0 50 0ZM75.275 40.1875C76.0375 57.0208 63.4833 75.7875 41.2583 75.7875C34.5 75.7875 28.2125 73.8042 22.9167 70.4083C29.2667 71.1583 35.6042 69.3917 40.6333 65.4542C35.4 65.3583 30.9792 61.8958 29.45 57.1417C31.3292 57.5 33.1792 57.3958 34.8583 56.9375C29.1042 55.7792 25.1292 50.5958 25.2583 45.05C26.875 45.9458 28.7167 46.4833 30.6792 46.5458C25.35 42.9833 23.8417 35.9458 26.975 30.5667C32.875 37.8083 41.6958 42.5708 51.6417 43.0708C49.8958 35.5875 55.575 28.375 63.3042 28.375C66.7417 28.375 69.8542 29.8292 72.0375 32.1542C74.7625 31.6208 77.3292 30.6208 79.6375 29.25C78.7417 32.0458 76.8458 34.3875 74.375 35.8708C76.7958 35.5792 79.1042 34.9375 81.2458 33.9833C79.6458 36.3917 77.6208 38.5 75.275 40.1875Z" fill="#1D9BF0"/>
</g>
<defs>
<clipPath id="clip0_2_56">
<rect width="100" height="100" rx="50" fill="white"/>
</clipPath>
</defs>
</svg>
