<svg width="125" height="135" viewBox="0 0 125 135" fill="none" xmlns="http://www.w3.org/2000/svg">
<path d="M125 67.5121C125 59.6636 114.63 52.2256 98.7311 47.6131C102.4 32.2542 100.769 20.0347 93.5844 16.1226C91.9283 15.2049 89.9918 14.7702 87.8771 14.7702V20.1555C89.0491 20.1555 89.9919 20.3728 90.7817 20.7834C94.2468 22.667 95.7501 29.8393 94.5781 39.0643C94.2978 41.3343 93.8392 43.7251 93.2786 46.1642C88.2848 45.005 82.8322 44.1115 77.0995 43.5319C73.6598 39.0643 70.0928 35.0072 66.5002 31.4573C74.8064 24.1401 82.6029 20.1313 87.9026 20.1313V14.7461C80.8958 14.7461 71.7234 19.4793 62.449 27.69C53.1747 19.5276 44.0022 14.8427 36.9955 14.8427V20.2279C42.2697 20.2279 50.0917 24.2126 58.3979 31.4815C54.8308 35.0314 51.2638 39.0643 47.8751 43.5319C42.1168 44.1115 36.6643 45.005 31.6704 46.1883C31.0844 43.7734 30.6512 41.4309 30.3455 39.1851C29.148 29.9601 30.6258 22.7877 34.0654 20.88C34.8298 20.4453 35.8235 20.2521 36.9955 20.2521V14.8668C34.8553 14.8668 32.9189 15.3015 31.2373 16.2192C24.0777 20.1313 22.4725 32.3267 26.1669 47.6373C10.319 52.2739 0 59.6877 0 67.5121C0 75.3606 10.37 82.7985 26.2689 87.411C22.5999 102.77 24.2305 114.989 31.4156 118.902C33.0718 119.819 35.0082 120.254 37.1484 120.254C44.1551 120.254 53.3276 115.521 62.6019 107.31C71.8763 115.472 81.0487 120.157 88.0554 120.157C90.1957 120.157 92.1321 119.723 93.8137 118.805C100.973 114.893 102.578 102.697 98.884 87.3869C114.681 82.7744 125 75.3364 125 67.5121ZM91.8263 51.4046C90.8836 54.5198 89.7116 57.7316 88.3867 60.9435C87.342 59.0116 86.2464 57.0796 85.0489 55.1477C83.8769 53.2157 82.6284 51.3321 81.38 49.4968C84.998 50.0039 88.4886 50.6318 91.8263 51.4046ZM80.157 77.1235C78.1696 80.3836 76.1313 83.4747 74.0165 86.3485C70.2201 86.6624 66.3728 86.8314 62.5 86.8314C58.6527 86.8314 54.8053 86.6624 51.0345 86.3726C48.9197 83.4988 46.8559 80.4319 44.8685 77.1959C42.9321 74.0324 41.1741 70.8205 39.5689 67.5845C41.1486 64.3485 42.9321 61.1125 44.8431 57.949C46.8304 54.6888 48.8687 51.5977 50.9835 48.724C54.7799 48.4101 58.6272 48.241 62.5 48.241C66.3473 48.241 70.1947 48.4101 73.9656 48.6998C76.0803 51.5736 78.1441 54.6406 80.1315 57.8765C82.0679 61.0401 83.8259 64.2519 85.4311 67.4879C83.8259 70.7239 82.0679 73.9599 80.157 77.1235ZM88.3867 73.9841C89.7625 77.2201 90.9346 80.4561 91.9028 83.5955C88.565 84.3682 85.0489 85.0202 81.4054 85.5274C82.6539 83.6679 83.9024 81.7601 85.0744 79.804C86.2464 77.8721 87.342 75.916 88.3867 73.9841ZM62.551 99.7513C60.1814 97.4329 57.8119 94.849 55.4678 92.0235C57.7609 92.1201 60.105 92.1926 62.4745 92.1926C64.8696 92.1926 67.2391 92.1443 69.5577 92.0235C67.2646 94.849 64.895 97.4329 62.551 99.7513ZM43.5946 85.5274C39.9766 85.0202 36.4859 84.3924 33.1482 83.6196C34.0909 80.5043 35.2629 77.2925 36.5879 74.0807C37.6325 76.0126 38.7281 77.9445 39.9256 79.8765C41.1231 81.8084 42.3461 83.692 43.5946 85.5274ZM62.4236 35.2729C64.7931 37.5912 67.1627 40.1752 69.5067 43.0006C67.2136 42.904 64.8696 42.8316 62.5 42.8316C60.105 42.8316 57.7354 42.8799 55.4168 43.0006C57.71 40.1752 60.0795 37.5912 62.4236 35.2729ZM43.5691 49.4968C42.3206 51.3563 41.0722 53.264 39.9001 55.2201C38.7281 57.1521 37.6325 59.084 36.5879 61.0159C35.212 57.7799 34.04 54.544 33.0718 51.4046C36.4095 50.6559 39.9256 50.0039 43.5691 49.4968ZM20.5106 79.7316C11.491 76.085 5.65634 71.3035 5.65634 67.5121C5.65634 63.7206 11.491 58.915 20.5106 55.2926C22.7018 54.3991 25.0968 53.6021 27.5683 52.8535C29.0206 57.5868 30.9315 62.5132 33.3011 67.5604C30.957 72.5834 29.0716 77.4857 27.6447 82.1948C25.1223 81.4462 22.7273 80.6251 20.5106 79.7316ZM34.2183 114.241C30.7532 112.357 29.2499 105.185 30.4219 95.9598C30.7022 93.6898 31.1608 91.299 31.7214 88.86C36.7153 90.0191 42.1678 90.9127 47.9005 91.4922C51.3402 95.9598 54.9073 100.017 58.4998 103.567C50.1936 110.884 42.3971 114.893 37.0974 114.893C35.9509 114.869 34.9827 114.651 34.2183 114.241ZM94.6545 95.8391C95.852 105.064 94.3742 112.236 90.9346 114.144C90.1702 114.579 89.1765 114.772 88.0045 114.772C82.7303 114.772 74.9083 110.787 66.6021 103.519C70.1692 99.9686 73.7363 95.9357 77.125 91.4681C82.8832 90.8885 88.3357 89.995 93.3296 88.8117C93.9156 91.2507 94.3742 93.5932 94.6545 95.8391ZM104.464 79.7316C102.273 80.6251 99.8777 81.422 97.4062 82.1706C95.9539 77.4374 94.043 72.511 91.6735 67.4638C94.0175 62.4407 95.903 57.5385 97.3298 52.8294C99.8522 53.578 102.247 54.3991 104.489 55.2926C113.509 58.9391 119.344 63.7206 119.344 67.5121C119.318 71.3035 113.483 76.1092 104.464 79.7316Z" fill="#61DAFB"/>
<path d="M62.4745 78.5483C68.9053 78.5483 74.1184 73.6072 74.1184 67.5121C74.1184 61.4169 68.9053 56.4759 62.4745 56.4759C56.0438 56.4759 50.8306 61.4169 50.8306 67.5121C50.8306 73.6072 56.0438 78.5483 62.4745 78.5483Z" fill="#61DAFB"/>
</svg>
